<svg xmlns="http://www.w3.org/2000/svg" viewBox="0 0 1024 279" width="100%" height="auto" preserveAspectRatio="xMidYMid meet" role="img" aria-label="PSR line staying inside a seasonal safety band, then dropping in red below the band during an anomaly">
  <rect class="chart-bg" width="100%" height="100%" rx="6" ry="6" fill="var(--chart-bg, #191919)"/>
  <g class="chart-grid" stroke="var(--chart-grid, #2f2f2f)" stroke-width="1" fill="none" shape-rendering="crispEdges">
    <line x1="0" y1="34.88" x2="1024" y2="34.88"/><line x1="0" y1="69.75" x2="1024" y2="69.75"/><line x1="0" y1="104.62" x2="1024" y2="104.62"/><line x1="0" y1="139.50" x2="1024" y2="139.50"/><line x1="0" y1="174.38" x2="1024" y2="174.38"/><line x1="0" y1="209.25" x2="1024" y2="209.25"/><line x1="0" y1="244.12" x2="1024" y2="244.12"/>
    <line x1="64.00" y1="0" x2="64.00" y2="279"/><line x1="128.00" y1="0" x2="128.00" y2="279"/><line x1="192.00" y1="0" x2="192.00" y2="279"/><line x1="256.00" y1="0" x2="256.00" y2="279"/><line x1="320.00" y1="0" x2="320.00" y2="279"/><line x1="384.00" y1="0" x2="384.00" y2="279"/><line x1="448.00" y1="0" x2="448.00" y2="279"/><line x1="512.00" y1="0" x2="512.00" y2="279"/><line x1="576.00" y1="0" x2="576.00" y2="279"/><line x1="640.00" y1="0" x2="640.00" y2="279"/><line x1="704.00" y1="0" x2="704.00" y2="279"/><line x1="768.00" y1="0" x2="768.00" y2="279"/><line x1="832.00" y1="0" x2="832.00" y2="279"/><line x1="896.00" y1="0" x2="896.00" y2="279"/><line x1="960.00" y1="0" x2="960.00" y2="279"/>
  </g>
  <path d="M0,36 L7,39 L15,41 L23,41 L30,41 L38,40 L46,40 L54,40 L61,42 L69,44 L77,46 L85,48 L92,50 L100,51 L108,48 L115,46 L123,44 L131,41 L139,39 L146,38 L154,39 L162,40 L170,41 L177,42 L185,42 L193,41 L200,40 L208,40 L216,38 L224,38 L231,36 L239,34 L247,31 L255,29 L262,27 L270,25 L278,22 L285,20 L293,18 L301,16 L309,13 L316,12 L324,14 L332,15 L340,16 L347,17 L355,18 L363,18 L370,17 L378,17 L386,17 L394,16 L420,16 L450,16 L480,16 L510,16 L540,16 L570,16 L600,16 L630,16 L650,16 L659,16 L667,16 L675,16 L683,16 L690,15 L698,15 L706,14 L713,14 L721,13 L729,12 L737,11 L744,11 L752,10 L760,10 L768,10 L775,10 L783,10 L791,10 L798,10 L806,11 L814,11 L822,12 L829,12 L837,12 L845,12 L853,13 L860,13 L868,13 L876,14 L883,15 L891,16 L899,18 L907,18 L914,20 L922,22 L930,24 L938,26 L945,28 L953,30 L961,31 L968,30 L976,30 L984,29 L992,29 L999,28 L1007,30 L1015,31 L1023,32 L1023,60 L1015,59 L1007,58 L999,56 L992,57 L984,57 L976,58 L968,58 L961,59 L953,58 L945,56 L938,54 L930,52 L922,50 L914,48 L907,46 L899,46 L891,44 L883,43 L876,42 L868,41 L860,41 L853,41 L845,40 L837,40 L829,40 L822,40 L814,39 L806,39 L798,38 L791,38 L783,38 L775,38 L768,38 L760,38 L752,38 L744,39 L737,39 L729,40 L721,41 L713,42 L706,42 L698,43 L690,43 L683,44 L675,44 L667,44 L659,44 L650,44 L630,44 L600,44 L570,44 L540,44 L510,44 L480,44 L450,44 L420,44 L394,44 L386,45 L378,45 L370,45 L363,46 L355,46 L347,45 L340,44 L332,43 L324,42 L316,40 L309,41 L301,44 L293,46 L285,48 L278,50 L270,53 L262,55 L255,57 L247,59 L239,62 L231,64 L224,66 L216,66 L208,68 L200,68 L193,69 L185,70 L177,70 L170,69 L162,68 L154,67 L146,66 L139,67 L131,69 L123,72 L115,74 L108,76 L100,79 L92,78 L85,76 L77,74 L69,72 L61,70 L54,68 L46,68 L38,68 L30,69 L23,69 L15,69 L7,67 L0,64 Z" fill="#4691eb" fill-opacity="0.2"/>
  <path d="M0,50 L7,53 L15,55 L23,55 L30,55 L38,54 L46,54 L54,54 L61,56 L69,58 L77,60 L85,62 L92,64 L100,65 L108,62 L115,60 L123,58 L131,55 L139,53 L146,52 L154,53 L162,54 L170,55 L177,56 L185,56 L193,55 L200,54 L208,54 L216,52 L224,52 L231,50 L239,48 L247,45 L255,43 L262,41 L270,39 L278,36 L285,34 L293,32 L301,30 L309,27 L316,26 L324,28 L332,29 L340,30 L347,31 L355,32 L363,32 L370,31 L378,31 L386,31 L394,30 L420,30 L450,30 L480,30 L510,30 L540,30 L570,30 L600,30 L630,30 L650,30 L659,30 L667,30 L675,30 L683,30 L690,29 L698,29 L706,28 L713,28 L721,27 L729,26 L737,25 L744,25 L752,24 L760,24 L768,24 L775,24 L783,24 L791,24 L798,24 L806,25 L814,25 L822,26 L829,26 L837,26 L845,26 L853,27 L860,27 L868,27 L876,28 L883,29 L891,30 L899,32 L907,32 L914,34 L922,36 L930,38 L938,40 L945,42 L953,44 L961,45 L968,44 L976,44 L984,43 L992,43 L999,42 L1007,44 L1015,45 L1023,46" fill="none" stroke="#4691eb" stroke-width="2.75" stroke-linecap="round" stroke-linejoin="round"/>
  <path d="M400,31 L412,32 L422,34 L432,35 L438,36 L445,46 L448,56 L451,65 L454,74 L458,87 L461,96 L464,105 L467,115 L471,127 L474,137 L477,146 L480,156 L483,165 L487,164 L490,156 L493,148 L496,140 L500,129 L503,122 L506,114 L509,105 L512,98 L516,87 L519,79 L522,71 L525,63 L529,56 L532,54 L535,52 L538,50 L542,48 L545,47 L548,45 L551,44 L554,42 L558,40 L561,38 L564,37 L567,35 L571,33 L580,33 L590,33 L600,32 L620,32 L640,31 L655,31" fill="none" stroke="#e0454a" stroke-width="2.75" stroke-linecap="round" stroke-linejoin="round"/>
</svg>
