<svg viewBox="0 0 32 32" fill="none" width="21" height="21" xmlns="http://www.w3.org/2000/svg">
  <rect width="32" height="32" rx="7" fill="none"/>
  <rect x="4.5" y="4.5" width="23" height="23" rx="5.5" fill="none"/>
  <path fill="#bcd0e0" d="M12.38 13.99h2.35v1.04h.03c.33-.63 1.15-1.29 2.38-1.29 2.54 0 3.01 1.63 3.01 3.75v4.21h-2.47v-3.74c0-.89-.02-2.05-1.25-2.05-1.25 0-1.44.97-1.44 1.98v3.81h-2.48v-7.71zm-4.09 7.72h2.48v-7.71H8.29v7.71zM9.55 11.6a1.43 1.43 0 1 1 0-2.85 1.43 1.43 0 0 1 0 2.85z"/>
</svg>
